<?xml version="1.0" standalone="no"?>
<!DOCTYPE svg PUBLIC "-//W3C//DTD SVG 20010904//EN"
 "http://www.w3.org/TR/2001/REC-SVG-20010904/DTD/svg10.dtd">
<svg version="1.0" xmlns="http://www.w3.org/2000/svg"
 width="200.000000pt" height="200.000000pt" viewBox="0 0 200.000000 200.000000"
 preserveAspectRatio="xMidYMid meet">
<metadata>
Created by potrace 1.14, written by Peter Selinger 2001-2017
</metadata>
<g transform="translate(0.000000,200.000000) scale(0.100000,-0.100000)"
fill="#000000" stroke="none">
<path d="M888 1845 c-2 -2 -25 -6 -53 -9 -237 -32 -493 -222 -609 -455 -34
-66 -30 -88 13 -66 56 29 126 14 157 -32 l16 -25 36 62 c73 122 231 245 362
280 76 20 92 23 180 22 217 0 418 -114 531 -302 l35 -59 32 31 c27 27 38 32
82 32 27 0 56 -6 62 -12 7 -7 18 -12 25 -12 53 0 -71 204 -194 321 -121 114
-264 185 -429 214 -73 13 -236 19 -246 10z m132 -70 c17 -20 3 -54 -26 -61
-15 -4 -24 -13 -24 -26 0 -13 -6 -18 -17 -16 -14 2 -19 16 -23 56 -3 29 -4 55
-1 58 11 10 80 3 91 -11z m110 -20 c0 -18 5 -25 20 -25 11 0 20 6 20 14 0 20
19 31 32 18 16 -16 -12 -114 -31 -109 -11 2 -15 12 -14 30 2 36 -32 38 -41 2
-10 -40 -37 -21 -32 24 3 20 5 44 5 54 1 10 9 17 21 17 15 0 20 -7 20 -25z
m-319 -29 c10 -41 13 -44 33 -36 13 4 28 5 35 1 17 -11 -5 -27 -51 -35 -37 -7
-37 -6 -48 34 -6 23 -13 47 -16 55 -3 7 3 15 13 18 10 3 19 5 20 6 2 0 8 -19
14 -43z m-103 -18 c28 -54 32 -76 15 -82 -16 -6 -33 9 -33 29 0 5 -5 4 -12 -3
-8 -8 -8 -15 0 -25 7 -8 9 -17 5 -20 -15 -16 -30 -4 -50 36 -16 33 -18 46 -9
58 24 34 69 37 84 7z m630 6 c12 -8 22 -21 22 -29 0 -23 -33 -85 -45 -85 -19
0 -25 12 -15 30 14 26 -2 34 -20 11 -9 -13 -20 -18 -28 -12 -10 6 -9 17 7 54
22 51 40 58 79 31z m-811 -144 c13 0 13 -2 2 -17 -8 -9 -13 -25 -11 -35 3 -16
0 -18 -15 -10 -12 7 -25 7 -36 1 -14 -8 -17 -6 -17 14 0 12 -5 28 -12 35 -9 9
-8 12 5 12 9 0 22 9 29 19 12 20 12 20 26 0 7 -10 20 -19 29 -19z m997 0 c15
0 17 -3 8 -12 -7 -7 -12 -23 -12 -35 0 -20 -3 -22 -18 -14 -11 6 -24 6 -36 -1
-14 -8 -17 -7 -14 10 2 10 -3 26 -11 35 -12 15 -11 17 7 17 13 0 23 9 28 23
l7 22 10 -22 c6 -13 19 -23 31 -23z"/>
<path d="M965 1750 c3 -5 13 -10 21 -10 8 0 12 5 9 10 -3 6 -13 10 -21 10 -8
0 -12 -4 -9 -10z"/>
<path d="M655 1690 c3 -5 11 -10 16 -10 6 0 7 5 4 10 -3 6 -11 10 -16 10 -6 0
-7 -4 -4 -10z"/>
<path d="M1300 1690 c0 -5 5 -10 10 -10 6 0 10 5 10 10 0 6 -4 10 -10 10 -5 0
-10 -4 -10 -10z"/>
<path d="M914 1526 c-39 -17 -72 -59 -80 -101 -9 -50 6 -65 21 -21 17 49 40
73 82 87 46 15 95 4 126 -27 28 -27 52 -84 36 -84 -5 0 -9 7 -9 16 0 9 -15 31
-34 50 -26 26 -42 34 -70 34 -80 0 -126 -51 -126 -137 0 -27 -6 -57 -13 -68
-14 -21 -15 -45 -3 -82 6 -19 2 -25 -21 -34 -97 -37 -120 -61 -132 -140 l-8
-49 26 6 26 6 -23 -17 c-39 -29 -64 -91 -58 -143 5 -44 4 -45 -8 -19 -14 31
-78 101 -113 124 l-23 15 23 24 c17 17 37 24 77 26 42 2 54 7 56 21 2 14 -5
17 -37 17 -21 0 -39 5 -39 10 0 6 3 9 8 9 4 -1 24 -1 45 0 26 1 37 6 37 16 0
15 -9 18 -69 17 -19 0 -40 5 -46 12 -16 15 -131 12 -150 -4 -7 -6 -26 -9 -42
-7 -30 4 -28 -5 -32 130 -1 23 -9 45 -21 57 -21 21 -74 27 -86 9 -3 -6 -17 -8
-31 -4 -14 3 -31 0 -40 -7 -9 -7 -28 -13 -44 -14 -15 -1 -41 -12 -58 -25 -27
-22 -30 -29 -30 -86 -1 -35 -6 -63 -12 -65 -17 -6 -19 -67 -3 -83 9 -9 14 -37
14 -77 1 -56 4 -66 30 -92 22 -22 36 -27 59 -24 17 2 32 0 34 -5 2 -6 21 -11
43 -12 21 -2 51 -6 66 -9 19 -5 34 0 53 16 23 21 25 29 26 111 l1 87 31 0 c30
0 37 -8 95 -105 55 -91 139 -195 157 -195 4 0 14 4 24 10 38 20 152 228 144
260 -7 25 33 107 59 121 40 22 78 20 104 -6 l24 -24 26 24 c59 54 155 -12 156
-107 1 -55 65 -188 116 -240 20 -21 40 -38 44 -38 22 0 98 87 165 187 71 107
77 113 109 113 l34 0 0 -84 c0 -94 16 -128 60 -128 50 1 107 9 121 18 8 4 25
7 39 6 15 -1 37 8 54 24 26 23 29 32 31 92 1 40 6 67 13 70 17 5 15 81 -1 88
-9 3 -13 23 -12 61 2 52 -1 60 -32 90 -24 24 -39 32 -53 28 -10 -3 -29 0 -42
8 -13 8 -32 13 -43 11 -10 -1 -24 1 -30 6 -18 15 -74 5 -90 -16 -10 -13 -14
-45 -15 -101 l0 -81 -32 2 c-18 2 -40 6 -49 10 -30 13 -130 14 -143 0 -8 -7
-36 -12 -70 -12 -31 1 -59 -2 -63 -5 -14 -14 18 -30 56 -29 22 1 43 -3 46 -8
4 -6 -12 -10 -39 -10 -39 0 -46 -3 -46 -20 0 -18 7 -20 58 -20 48 0 62 -4 80
-22 l21 -23 -56 -45 c-31 -25 -64 -60 -74 -78 -26 -50 -29 -49 -23 5 7 54 -7
93 -45 127 -12 11 -21 24 -21 30 0 6 5 5 12 -2 29 -29 38 6 17 69 -17 49 -44
75 -106 100 -43 17 -52 25 -46 38 10 23 7 89 -6 105 -12 14 -4 73 10 82 16 9
9 66 -11 99 -36 58 -118 81 -186 51z m94 -134 c-10 -2 -18 -10 -18 -18 0 -10
7 -13 25 -8 34 9 42 -17 20 -67 -30 -66 -87 -63 -119 6 -23 49 -15 69 24 60
25 -5 29 -4 24 9 -3 9 -15 16 -26 16 -17 0 -16 3 9 24 l27 24 27 -22 c23 -18
23 -21 7 -24z m-711 -164 c8 -14 12 -330 3 -322 -23 24 -52 278 -36 319 7 18
22 19 33 3z m1407 -109 c0 -75 -6 -131 -16 -164 l-16 -50 -1 161 c-1 88 2 164
6 168 21 21 28 -8 27 -115z m-1495 89 c4 -13 8 -86 9 -163 l0 -140 -24 75
c-32 100 -33 250 -3 250 5 0 13 -10 18 -22z m1583 5 c14 -59 -10 -263 -31
-263 -13 0 -12 251 0 266 15 19 26 18 31 -3z m-1665 -143 c2 -140 1 -140 -32
-25 l-14 50 1 -97 c1 -54 -1 -100 -4 -104 -3 -3 -7 61 -7 141 -2 151 4 179 38
173 14 -3 16 -24 18 -138z m851 62 c7 -2 19 12 28 33 17 42 30 43 15 1 -10
-26 -10 -26 39 -26 27 0 51 -4 54 -9 3 -5 -7 -7 -22 -6 -15 1 -48 -3 -74 -10
-27 -7 -53 -8 -62 -3 -8 5 -36 10 -61 11 -59 2 -59 17 1 17 42 0 45 1 38 23
-4 12 -9 29 -11 37 -3 8 6 -3 19 -24 12 -22 29 -41 36 -44z m911 61 c10 -20
12 -281 2 -287 -3 -3 -6 39 -5 92 l1 97 -18 -60 c-10 -33 -19 -68 -19 -77 0
-10 -3 -18 -8 -18 -10 0 -9 242 1 258 12 17 35 15 46 -5z m-1339 -154 c0 -5
-45 -9 -100 -9 -55 0 -100 4 -100 9 0 5 45 9 100 9 55 0 100 -4 100 -9z m1075
1 c4 -6 -35 -10 -99 -10 -58 0 -106 4 -106 8 0 12 198 13 205 2z m132 -122
c-3 -8 -6 -5 -6 6 -1 11 2 17 5 13 3 -3 4 -12 1 -19z"/>
<path d="M973 1311 c8 -10 9 -13 0 -8 -6 4 -14 3 -18 -3 -3 -5 2 -10 12 -10
15 0 16 -2 3 -10 -12 -8 -11 -10 7 -10 15 0 20 5 18 18 -2 9 -4 22 -4 28 -1 6
-8 11 -16 11 -12 0 -12 -3 -2 -16z"/>
<path d="M833 1038 c-29 -37 -34 -57 -19 -91 10 -25 22 -36 42 -40 37 -7 93
19 106 49 l11 23 20 -26 c43 -55 121 -62 146 -14 17 31 13 58 -13 87 l-23 28
0 -28 c0 -16 -7 -32 -14 -37 -21 -14 -62 -1 -84 26 -12 14 -24 25 -27 25 -4 0
-20 -13 -36 -30 -17 -16 -39 -30 -50 -30 -26 0 -46 25 -39 50 6 22 -5 27 -20
8z"/>
<path d="M800 923 c0 -6 14 -45 30 -86 17 -42 30 -83 30 -92 0 -9 -13 -33 -29
-53 -26 -35 -67 -169 -73 -245 -1 -15 -6 -27 -11 -27 -5 0 -37 15 -70 32 -88
47 -194 157 -242 250 l-39 76 -26 -19 c-33 -25 -88 -30 -122 -13 -23 12 -31
12 -48 2 -25 -16 -25 -20 9 -100 56 -130 171 -268 296 -353 286 -194 655 -198
946 -10 133 86 268 249 321 387 l19 52 -22 17 c-21 15 -25 16 -46 2 -30 -20
-97 -12 -127 16 l-21 20 -39 -76 c-52 -100 -155 -204 -254 -257 -40 -21 -75
-36 -77 -34 -3 2 -7 20 -9 39 -16 119 -54 228 -93 267 -18 19 -17 27 21 120
18 45 32 82 31 82 -2 0 -16 -7 -31 -15 -39 -20 -63 -19 -102 5 -18 11 -34 20
-36 20 -3 0 -2 -28 3 -77 0 -7 15 -19 31 -28 41 -21 38 -37 -4 -20 l-34 14 3
-37 c1 -20 3 -40 4 -44 0 -4 13 -14 27 -21 16 -8 22 -17 16 -21 -6 -3 -13 -2
-17 4 -3 5 -12 10 -19 10 -10 0 -13 -14 -10 -50 2 -27 -1 -52 -7 -55 -8 -6
-14 44 -10 88 3 20 -3 21 -30 7 -28 -16 -23 5 6 24 20 13 25 24 23 56 l-1 39
-34 -14 c-18 -8 -33 -10 -33 -4 0 5 3 9 8 9 25 1 55 41 59 79 l4 42 -42 -21
c-47 -25 -102 -21 -118 8 -6 9 -11 12 -11 5z m303 -310 c-10 -27 -61 -112 -89
-148 -14 -18 -24 -45 -24 -63 0 -20 -5 -32 -14 -32 -9 0 -12 10 -10 30 2 19
-4 38 -19 57 -26 32 -97 147 -97 158 0 3 23 -19 51 -49 28 -31 60 -56 70 -56
29 0 61 24 99 75 37 49 43 54 33 28z m-536 -223 c12 0 13 -3 4 -13 -6 -8 -8
-17 -4 -20 3 -4 -6 -7 -21 -7 -15 0 -25 4 -21 9 3 5 0 13 -5 16 -7 5 -5 12 7
20 10 8 20 9 21 4 2 -5 11 -9 19 -9z m112 -9 c8 -5 12 -18 8 -30 -6 -24 5 -27
23 -6 13 16 40 21 40 7 0 -15 -62 -92 -73 -92 -24 0 -37 17 -32 40 3 13 6 39
7 57 2 35 5 38 27 24z m625 -7 c22 -9 10 -24 -20 -24 -13 0 -24 -5 -24 -11 0
-7 11 -9 30 -6 38 8 60 0 60 -23 0 -39 -76 -74 -99 -46 -15 17 -9 20 37 16 13
-1 22 4 22 13 0 9 -12 13 -37 13 -32 -1 -39 3 -41 21 -2 13 5 27 20 37 25 18
29 19 52 10z m-415 -60 c10 -9 -21 -22 -40 -17 -10 3 -19 1 -19 -5 0 -6 10
-12 23 -14 12 -2 20 -7 17 -13 -3 -5 -15 -9 -27 -7 -13 1 -23 -2 -23 -8 0 -5
8 -10 18 -10 24 0 46 -16 38 -28 -6 -10 -94 6 -98 18 0 3 4 28 11 56 l12 52
42 -10 c23 -5 44 -11 46 -14z m288 -27 c10 -35 10 -44 -4 -59 -17 -19 -49 -23
-70 -10 -6 4 -14 28 -18 55 -7 43 -6 47 14 47 11 0 20 -3 20 -7 -3 -19 2 -49
11 -63 15 -24 20 -7 10 35 -6 28 -5 42 3 47 15 9 20 4 34 -45z m-172 19 c12
-9 19 -28 21 -60 3 -40 0 -46 -17 -46 -16 0 -19 7 -19 45 0 51 -19 62 -21 13
-1 -18 -1 -39 0 -46 2 -9 -6 -12 -19 -10 -11 2 -21 6 -20 11 0 4 0 22 0 41 0
55 36 81 75 52z"/>
</g>
</svg>
